<?xml version="1.0" standalone="no"?>
<!DOCTYPE svg PUBLIC "-//W3C//DTD SVG 20010904//EN"
 "http://www.w3.org/TR/2001/REC-SVG-20010904/DTD/svg10.dtd">
<svg version="1.0" xmlns="http://www.w3.org/2000/svg"
 width="128.000000pt" height="128.000000pt" viewBox="0 0 128.000000 128.000000"
 preserveAspectRatio="xMidYMid meet">
<metadata>CA "Magic of Friendship", 2017
</metadata>
<g transform="translate(0.000000,128.000000) scale(0.100000,-0.100000)"
fill="#ffffff" stroke="none">
<path d="M180 820 l0 -429 -57 -3 -58 -3 -3 -178 -2 -177 119 0 120 0 3 57 3
58 333 3 332 2 0 -60 0 -60 125 0 125 0 -2 178 -3 177 -62 3 -63 3 0 429 0
430 -47 0 -48 -1 -178 -194 c-98 -107 -182 -195 -186 -195 -4 0 -86 87 -182
194 l-174 195 -47 0 -48 1 0 -430z m450 -290 c8 0 59 44 112 97 l98 98 0 -168
0 -167 -210 0 -210 0 0 173 1 172 97 -103 c53 -56 104 -103 112 -102z"/>
</g>
</svg>
